<?xml version="1.0" encoding="iso-8859-1"?>
<svg version="1.1" id="Layer_1" xmlns="http://www.w3.org/2000/svg" xmlns:xlink="http://www.w3.org/1999/xlink" x="0px" y="0px" viewBox="0 0 330 330" xml:space="preserve">
	<path fill="#FFD700" d="M271.904,8.578c-6.308-5.369-15.775-4.61-21.145,1.698s-4.609,15.775,1.698,21.146 C282.671,57.143,300,94.629,300,134.268c0,8.284,6.716,15,15,15s15-6.716,15-15C330,85.821,308.825,40.009,271.904,8.578z" />
	<path fill="#FFD700" d="M77.543,31.423c6.308-5.37,7.068-14.837,1.698-21.146C73.87,3.969,64.404,3.209,58.096,8.58 C21.175,40.011,0,85.822,0,134.268c0,8.284,6.716,15,15,15s15-6.716,15-15C30,94.63,47.329,57.144,77.543,31.423z" />
	<path fill="#FFD700" d="M270,260h-5V129.266c0-52.805-39.184-96.623-90-103.923V15c0-8.284-6.716-15-15-15c-8.284,0-15,6.716-15,15 v10.343c-50.816,7.301-90,51.119-90,103.923V260h-5c-8.284,0-15,6.716-15,15s6.716,15,15,15h67.58 c6.192,17.458,22.865,29.999,42.42,29.999s36.228-12.541,42.42-29.999H270c8.284,0,15-6.716,15-15S278.284,260,270,260z M84.999,129.266c0-41.355,33.645-74.999,75-74.999c41.355,0,75,33.645,75,74.999V260h-150V129.266z" />
</svg>