<?xml version="1.0" encoding="iso-8859-1" ?>
<svg version="1.1" id="Layer_1" xmlns="http://www.w3.org/2000/svg" xmlns:xlink="http://www.w3.org/1999/xlink" x="0px" y="0px" viewBox="0 0 319.999 319.999" xml:space="preserve">
	<path fill="#FFD700" d="M270,260h-5V129.266c0-52.805-39.184-96.623-90-103.923V15c0-8.284-6.716-15-15-15c-8.284,0-15,6.716-15,15 v10.343c-50.816,7.301-90,51.119-90,103.923V260h-5c-8.284,0-15,6.716-15,15s6.716,15,15,15h67.58 c6.192,17.458,22.865,29.999,42.42,29.999s36.228-12.541,42.42-29.999H270c8.284,0,15-6.716,15-15S278.284,260,270,260z M84.999,129.266c0-41.355,33.645-74.999,75-74.999c41.355,0,75,33.645,75,74.999V260h-150V129.266z" />
</svg>