<svg height="512pt" viewBox="0 1 512 512" width="512pt" xmlns="http://www.w3.org/2000/svg">
	<polygon points="376.9,8.2 376.9,24.6 406.3,24.6 237.6,193.3 155.7,111.3 51.6,215.4 63.1,227 155.7,134.5 237.6,216.4 417.9,36.2 417.9,65.5 434.3,65.5 434.3,8.2" fill="#FFFFFF" />
	<path d="M491.6,483.4L491.6,483.4V122.9h-81.9v360.5h-16.4V172.1h-81.9v311.4H295V286.8h-82v196.6h-16.4V237.6h-81.9v245.8H98.3 V368.7H16.4v114.7H0v16.4h508v-16.4H491.6z M82,483.4H32.8v-98.3H82V483.4z M180.3,483.4h-49.2V254h49.2V483.4z M278.6,483.5 h-49.2V303.2h49.2V483.5z M376.9,483.5h-49.2v-295h49.2V483.5z M475.3,483.4h-49.2V139.3h49.2V483.4z" fill="#FFFFFF" />
</svg>