<svg height="32" width="32" xmlns="http://www.w3.org/2000/svg" viewBox="0 0 500 500">
	<g fill="none" fill-rule="evenodd">
		<circle cx="250" cy="250" fill="#FFF" r="250" />
		<path fill="#000" class="st0" d="M274.2,173.6l90.1-52v104L274.2,173.6z M364.3,395.5l-118.7,68.6l-118.7-68.5V275l118.7,68.5L364.3,275V395.5z
	 M126.9,121.6l90.1,52l-90.1,52V121.6z M259.9,198.3l90.1,51.9l-90.1,52V198.3z M231.3,302.2l-90-52l90-52V302.2z M350,96.8
	l-104.4,60.3l0,0l0,0L141.1,96.8l104.5-60.3L350,96.8z M98.4,88.5v153.6v16.4v153.6l147.2,85L392.8,412V258.5V242V88.5l-147.2-85
	L98.4,88.5z"/>
	</g>
</svg>
