<?xml version="1.0" encoding="iso-8859-1" ?>
<svg  xmlns="http://www.w3.org/2000/svg" xmlns:xlink="http://www.w3.org/1999/xlink" x="0px" y="0px" width="32" height="32" viewBox="0 0 511.999 511.999" xml:space="preserve">
	<g fill="#000000">
		<path d="M467.849,54.939c3.008-11.225,1.448-22.981-4.394-33.099c-5.815-10.069-15.153-17.278-26.308-20.311
				c-0.054-0.015-0.107-0.03-0.16-0.044C433.311,0.499,429.529,0,425.743,0c-19.752,0-37.109,13.301-42.209,32.345l-8.783,32.779
				H239.538l2.73-10.185c3.008-11.225,1.448-22.981-4.394-33.098c-5.819-10.079-15.168-17.29-26.336-20.32
				c-0.044-0.013-0.09-0.025-0.133-0.036C207.729,0.499,203.945,0,200.159,0c-19.746,0-37.103,13.301-42.207,32.345L44.15,457.063
				c-3.008,11.225-1.45,22.981,4.392,33.099c5.843,10.117,15.241,17.346,26.467,20.353c0.057,0.016,0.112,0.03,0.169,0.045
				c3.323,0.876,6.734,1.336,10.153,1.409c0.196,0.011,0.387,0.029,0.586,0.029h0.325c0.006,0,0.011,0.001,0.017,0.001
				c0.008,0,0.017-0.001,0.025-0.001h70.133c5.89,0,10.668-4.776,10.668-10.668c0-5.891-4.778-10.668-10.668-10.668h-32.61
				c2.017-3.381,3.602-7.069,4.656-11.009l25.325-94.516h135.216l-19.272,71.924c-3.008,11.225-1.45,22.981,4.394,33.099
				c5.841,10.117,15.241,17.346,26.465,20.353c0.057,0.016,0.112,0.03,0.169,0.044c3.624,0.957,7.351,1.441,11.08,1.441
				c0.081,0,0.162-0.005,0.243-0.005c0.031,0,0.061,0.004,0.092,0.004h70.5c5.891,0,10.668-4.776,10.668-10.668
				c0-5.891-4.777-10.668-10.668-10.668h-33.288c2.017-3.381,3.605-7.069,4.661-11.009L467.849,54.939z M369.032,86.46
				l-5.716,21.334H214.202h-7.092c-5.88,0-10.665-4.786-10.665-10.669c0-5.881,4.785-10.665,10.665-10.665h18.524H369.032z
				 M179.902,235.798h-7.089c-5.882,0-10.665-4.784-10.665-10.665c0-5.882,4.783-10.667,10.665-10.667h18.524h143.398l-5.719,21.332
				H179.902z M323.303,257.133l-17.149,64.001H170.938l17.147-64.001H323.303z M205.239,193.131l17.147-64.002h135.216
				l-17.149,64.002H205.239z M107.856,474.134c-2.604,9.729-11.48,16.524-21.585,16.529h-0.029
				c-1.917-0.001-3.838-0.255-5.707-0.756c-0.039-0.011-0.079-0.021-0.118-0.03c-5.669-1.551-10.423-5.235-13.397-10.383
				c-2.992-5.181-3.794-11.186-2.26-16.908L178.561,37.869c2.609-9.735,11.491-16.534,21.599-16.534
				c1.889,0,3.782,0.247,5.627,0.733c0.031,0.009,0.065,0.018,0.098,0.027c5.721,1.532,10.519,5.23,13.512,10.414
				c2.992,5.182,3.797,11.186,2.263,16.908l-4.208,15.709h-10.34c-17.645,0-32.001,14.355-32.001,32.001
				c0,0.518,0.015,1.035,0.039,1.548c0.009,0.167,0.022,0.334,0.033,0.5c0.022,0.345,0.046,0.689,0.079,1.032
				c0.019,0.196,0.042,0.389,0.065,0.585c0.035,0.312,0.075,0.622,0.118,0.93c0.029,0.202,0.061,0.404,0.094,0.605
				c0.05,0.301,0.105,0.601,0.16,0.898c0.039,0.198,0.077,0.396,0.118,0.593c0.067,0.304,0.138,0.606,0.21,0.908
				c0.046,0.185,0.087,0.369,0.138,0.552c0.085,0.333,0.181,0.659,0.279,0.988c0.044,0.147,0.085,0.295,0.131,0.443
				c0.146,0.467,0.302,0.931,0.47,1.39c0.031,0.084,0.067,0.166,0.098,0.25c0.14,0.375,0.286,0.749,0.44,1.118
				c0.068,0.163,0.144,0.324,0.214,0.485c0.125,0.286,0.252,0.57,0.385,0.851c0.085,0.179,0.175,0.356,0.262,0.533
				c0.129,0.26,0.26,0.518,0.396,0.774c0.098,0.181,0.196,0.361,0.293,0.54c0.14,0.25,0.284,0.498,0.429,0.744
				c0.102,0.173,0.204,0.347,0.31,0.517c0.156,0.253,0.319,0.502,0.481,0.75c0.105,0.157,0.204,0.316,0.31,0.47
				c0.192,0.279,0.389,0.554,0.59,0.827c0.085,0.116,0.166,0.237,0.254,0.353c0.286,0.381,0.581,0.755,0.883,1.123
				c0.088,0.108,0.181,0.21,0.271,0.317c0.221,0.261,0.444,0.522,0.673,0.777c0.127,0.142,0.258,0.279,0.387,0.418
				c0.201,0.214,0.402,0.427,0.606,0.636c0.142,0.144,0.288,0.285,0.431,0.427c0.204,0.198,0.409,0.393,0.614,0.586
				c0.15,0.139,0.3,0.276,0.452,0.413c0.212,0.189,0.429,0.374,0.645,0.558c0.153,0.129,0.306,0.259,0.463,0.386
				c0.229,0.188,0.465,0.37,0.7,0.552c0.148,0.113,0.293,0.229,0.442,0.339c0.293,0.218,0.592,0.427,0.89,0.634
				c0.098,0.067,0.194,0.139,0.291,0.205c0.396,0.267,0.798,0.525,1.209,0.776c0.129,0.079,0.262,0.155,0.396,0.232
				c0.286,0.17,0.571,0.337,0.863,0.498c0.166,0.092,0.335,0.178,0.502,0.267c0.265,0.139,0.529,0.276,0.798,0.409
				c0.179,0.089,0.361,0.173,0.542,0.258c0.265,0.124,0.531,0.244,0.8,0.363c0.183,0.079,0.367,0.158,0.55,0.235
				c0.277,0.114,0.558,0.224,0.84,0.331c0.179,0.069,0.358,0.138,0.54,0.203c0.306,0.111,0.617,0.213,0.927,0.315
				c0.158,0.052,0.315,0.107,0.475,0.156c0.446,0.139,0.898,0.267,1.353,0.385c0.025,0.006,0.048,0.015,0.073,0.021
				c0.448,0.115,0.9,0.222,1.356,0.318l-17.333,64.692H172.81c-17.645,0-32.001,14.355-32.001,32.002
				c0,0.52,0.015,1.035,0.039,1.548c0.009,0.167,0.022,0.334,0.033,0.501c0.022,0.344,0.046,0.688,0.079,1.029
				c0.019,0.197,0.042,0.39,0.065,0.586c0.035,0.312,0.075,0.622,0.118,0.931c0.029,0.201,0.061,0.401,0.094,0.601
				c0.05,0.303,0.105,0.604,0.16,0.904c0.039,0.197,0.077,0.393,0.118,0.589c0.067,0.306,0.138,0.609,0.212,0.911
				c0.044,0.182,0.085,0.366,0.133,0.547c0.09,0.335,0.186,0.667,0.284,0.997c0.044,0.144,0.083,0.289,0.127,0.432
				c0.148,0.469,0.304,0.935,0.473,1.394c0.029,0.078,0.063,0.155,0.092,0.233c0.142,0.381,0.29,0.761,0.448,1.135
				c0.067,0.159,0.14,0.316,0.208,0.474c0.127,0.289,0.256,0.579,0.392,0.865c0.083,0.174,0.169,0.347,0.256,0.52
				c0.131,0.266,0.265,0.529,0.404,0.789c0.094,0.176,0.19,0.35,0.286,0.524c0.144,0.256,0.289,0.511,0.439,0.762
				c0.098,0.169,0.198,0.336,0.3,0.503c0.16,0.258,0.328,0.513,0.494,0.767c0.1,0.153,0.198,0.305,0.3,0.456
				c0.198,0.29,0.404,0.575,0.61,0.859c0.079,0.107,0.153,0.216,0.231,0.321c0.289,0.384,0.586,0.762,0.89,1.132
				c0.079,0.096,0.16,0.187,0.242,0.282c0.232,0.274,0.465,0.547,0.704,0.814c0.121,0.134,0.245,0.265,0.369,0.397
				c0.206,0.221,0.415,0.441,0.625,0.656c0.138,0.14,0.279,0.276,0.419,0.413c0.206,0.202,0.417,0.402,0.629,0.6
				c0.146,0.135,0.291,0.27,0.44,0.402c0.217,0.194,0.437,0.383,0.66,0.571c0.148,0.125,0.295,0.251,0.446,0.374
				c0.24,0.195,0.481,0.383,0.725,0.571c0.14,0.107,0.277,0.217,0.419,0.321c0.308,0.228,0.621,0.449,0.938,0.667
				c0.081,0.057,0.16,0.116,0.244,0.172c0.4,0.27,0.804,0.529,1.217,0.78c0.123,0.076,0.25,0.146,0.373,0.22
				c0.293,0.174,0.588,0.346,0.888,0.511c0.16,0.089,0.323,0.172,0.485,0.257c0.271,0.143,0.542,0.284,0.815,0.419
				c0.175,0.085,0.35,0.167,0.527,0.25c0.269,0.127,0.54,0.25,0.815,0.37c0.179,0.078,0.361,0.155,0.542,0.23
				c0.282,0.116,0.564,0.227,0.85,0.336c0.175,0.067,0.35,0.134,0.527,0.198c0.313,0.112,0.629,0.218,0.948,0.322
				c0.153,0.049,0.302,0.102,0.454,0.149c0.461,0.142,0.927,0.275,1.396,0.397c0.011,0.003,0.021,0.006,0.031,0.01
				c0.448,0.115,0.9,0.222,1.356,0.318l-17.333,64.693h-10.338c-17.645,0-32.001,14.355-32.001,32.002
				c0,0.519,0.015,1.036,0.039,1.548c0.006,0.167,0.021,0.334,0.033,0.5c0.021,0.345,0.046,0.689,0.077,1.032
				c0.019,0.196,0.044,0.389,0.065,0.585c0.037,0.311,0.075,0.623,0.118,0.932c0.029,0.202,0.063,0.4,0.094,0.601
				c0.05,0.303,0.104,0.606,0.162,0.908c0.037,0.195,0.077,0.388,0.116,0.582c0.067,0.309,0.14,0.615,0.214,0.922
				c0.044,0.179,0.085,0.358,0.131,0.537c0.092,0.342,0.19,0.682,0.291,1.02c0.039,0.135,0.077,0.273,0.118,0.409
				c0.148,0.471,0.306,0.94,0.477,1.402c0.021,0.061,0.046,0.119,0.068,0.18c0.15,0.4,0.306,0.797,0.47,1.19
				c0.063,0.148,0.129,0.293,0.194,0.442c0.131,0.302,0.267,0.602,0.409,0.9c0.077,0.164,0.16,0.329,0.242,0.492
				c0.135,0.276,0.277,0.55,0.421,0.822c0.087,0.166,0.179,0.332,0.271,0.495c0.148,0.268,0.3,0.532,0.457,0.796
				c0.094,0.158,0.188,0.316,0.286,0.471c0.169,0.274,0.341,0.543,0.518,0.812c0.092,0.137,0.179,0.275,0.271,0.411
				c0.219,0.319,0.444,0.633,0.673,0.943c0.057,0.079,0.112,0.159,0.171,0.238c0.293,0.391,0.596,0.777,0.907,1.154
				c0.054,0.065,0.111,0.126,0.162,0.191c0.256,0.306,0.518,0.609,0.785,0.907c0.107,0.116,0.214,0.23,0.323,0.346
				c0.223,0.24,0.446,0.476,0.675,0.709c0.125,0.125,0.252,0.247,0.378,0.372c0.223,0.218,0.448,0.433,0.677,0.644
				c0.131,0.122,0.265,0.243,0.398,0.363c0.234,0.209,0.47,0.414,0.71,0.616c0.133,0.112,0.265,0.225,0.4,0.335
				c0.258,0.212,0.523,0.418,0.789,0.622c0.118,0.091,0.236,0.183,0.356,0.273c0.346,0.257,0.696,0.507,1.052,0.749
				c0.044,0.03,0.087,0.063,0.131,0.093c0.409,0.275,0.821,0.541,1.242,0.797c0.094,0.058,0.192,0.111,0.288,0.167
				c0.323,0.193,0.645,0.381,0.975,0.561c0.144,0.079,0.289,0.155,0.435,0.232c0.286,0.151,0.573,0.3,0.865,0.444
				c0.164,0.08,0.33,0.158,0.494,0.236c0.282,0.131,0.562,0.259,0.848,0.383c0.171,0.075,0.341,0.148,0.514,0.22
				c0.289,0.119,0.583,0.235,0.877,0.346c0.169,0.065,0.337,0.129,0.507,0.191c0.319,0.115,0.642,0.222,0.962,0.328
				c0.15,0.048,0.296,0.099,0.444,0.145c0.459,0.142,0.918,0.273,1.384,0.394c0.015,0.004,0.031,0.01,0.048,0.014
				c0.448,0.115,0.902,0.222,1.358,0.319L107.856,474.134z M145.604,363.804h-7.092c-5.882,0-10.665-4.786-10.665-10.668
				c0-5.882,4.783-10.667,10.665-10.667h18.524h143.398l-5.715,21.334H145.604z M333.439,474.133
				c-2.608,9.734-11.492,16.533-21.6,16.533c-1.923,0-3.848-0.255-5.721-0.757c-0.042-0.011-0.081-0.021-0.121-0.031
				c-5.67-1.552-10.424-5.236-13.397-10.384c-2.992-5.181-3.794-11.186-2.26-16.908l64.743-241.631l3.858-14.395
				c0.002-0.007,0.004-0.015,0.004-0.022L404.14,37.865c2.609-9.732,11.491-16.529,21.603-16.529c1.884,0,3.769,0.244,5.609,0.728
				c0.037,0.012,0.077,0.022,0.114,0.032c5.721,1.532,10.519,5.23,13.512,10.414c2.994,5.182,3.797,11.186,2.263,16.908
				L333.439,474.133z" />
		<path d="M190.244,490.664h-0.73c-5.893,0-10.668,4.777-10.668,10.668c0,5.892,4.775,10.668,10.668,10.668h0.73 c5.89,0,10.668-4.776,10.668-10.668C200.911,495.441,196.134,490.664,190.244,490.664z" />
	</g>
</svg>